<svg width="1920" height="644" viewBox="0 0 1920 644" fill="none" xmlns="http://www.w3.org/2000/svg">
<line y1="49.5" x2="1920" y2="49.5" stroke="#E3E0E0"/>
<line y1="99.5" x2="1920" y2="99.5" stroke="#E3E0E0"/>
<line y1="149.5" x2="1920" y2="149.5" stroke="#E3E0E0"/>
<line y1="199.5" x2="1920" y2="199.5" stroke="#E3E0E0"/>
<line y1="249.5" x2="1920" y2="249.5" stroke="#E3E0E0"/>
<line y1="299.5" x2="1920" y2="299.5" stroke="#E3E0E0"/>
<line y1="349.5" x2="1920" y2="349.5" stroke="#E3E0E0"/>
<line y1="399.5" x2="1920" y2="399.5" stroke="#E3E0E0"/>
<line y1="449.5" x2="1920" y2="449.5" stroke="#E3E0E0"/>
<line y1="499.5" x2="1920" y2="499.5" stroke="#E3E0E0"/>
<line y1="549.5" x2="1920" y2="549.5" stroke="#E3E0E0"/>
<line x1="50.5" y1="2.18557e-08" x2="50.5" y2="582" stroke="#E3E0E0"/>
<line x1="100.5" y1="2.18557e-08" x2="100.5" y2="582" stroke="#E3E0E0"/>
<line x1="150.5" y1="2.18557e-08" x2="150.5" y2="582" stroke="#E3E0E0"/>
<line x1="200.5" y1="2.18557e-08" x2="200.5" y2="582" stroke="#E3E0E0"/>
<line x1="250.5" y1="2.18557e-08" x2="250.5" y2="582" stroke="#E3E0E0"/>
<line x1="300.5" y1="2.18557e-08" x2="300.5" y2="582" stroke="#E3E0E0"/>
<line x1="350.5" y1="2.18557e-08" x2="350.5" y2="582" stroke="#E3E0E0"/>
<line x1="400.5" y1="2.18557e-08" x2="400.5" y2="582" stroke="#E3E0E0"/>
<line x1="450.5" y1="2.18557e-08" x2="450.5" y2="582" stroke="#E3E0E0"/>
<line x1="500.5" y1="2.18557e-08" x2="500.5" y2="582" stroke="#E3E0E0"/>
<line x1="550.5" y1="2.18557e-08" x2="550.5" y2="582" stroke="#E3E0E0"/>
<line x1="600.5" y1="2.18557e-08" x2="600.5" y2="582" stroke="#E3E0E0"/>
<line x1="650.5" y1="2.18557e-08" x2="650.5" y2="582" stroke="#E3E0E0"/>
<line x1="700.5" y1="2.18557e-08" x2="700.5" y2="582" stroke="#E3E0E0"/>
<line x1="750.5" y1="2.18557e-08" x2="750.5" y2="582" stroke="#E3E0E0"/>
<line x1="800.5" y1="2.18557e-08" x2="800.5" y2="582" stroke="#E3E0E0"/>
<line x1="850.5" y1="2.18557e-08" x2="850.5" y2="582" stroke="#E3E0E0"/>
<line x1="900.5" y1="2.18557e-08" x2="900.5" y2="582" stroke="#E3E0E0"/>
<line x1="950.5" y1="2.18557e-08" x2="950.5" y2="582" stroke="#E3E0E0"/>
<line x1="1000.5" y1="2.18557e-08" x2="1000.5" y2="582" stroke="#E3E0E0"/>
<line x1="1050.5" y1="2.18557e-08" x2="1050.5" y2="582" stroke="#E3E0E0"/>
<line x1="1100.5" y1="2.18557e-08" x2="1100.5" y2="582" stroke="#E3E0E0"/>
<line x1="1150.5" y1="2.18557e-08" x2="1150.5" y2="582" stroke="#E3E0E0"/>
<line x1="1200.5" y1="2.18557e-08" x2="1200.5" y2="582" stroke="#E3E0E0"/>
<line x1="1250.5" y1="2.18557e-08" x2="1250.5" y2="582" stroke="#E3E0E0"/>
<line x1="1300.5" y1="2.18557e-08" x2="1300.5" y2="582" stroke="#E3E0E0"/>
<line x1="1350.5" y1="2.18557e-08" x2="1350.5" y2="582" stroke="#E3E0E0"/>
<line x1="1400.5" y1="2.18557e-08" x2="1400.5" y2="582" stroke="#E3E0E0"/>
<line x1="1450.5" y1="2.18557e-08" x2="1450.5" y2="582" stroke="#E3E0E0"/>
<line x1="1500.5" y1="2.18557e-08" x2="1500.5" y2="582" stroke="#E3E0E0"/>
<line x1="1550.5" y1="2.18557e-08" x2="1550.5" y2="582" stroke="#E3E0E0"/>
<line x1="1600.5" y1="2.18557e-08" x2="1600.5" y2="582" stroke="#E3E0E0"/>
<line x1="1650.5" y1="2.18557e-08" x2="1650.5" y2="582" stroke="#E3E0E0"/>
<line x1="1700.5" y1="2.18557e-08" x2="1700.5" y2="582" stroke="#E3E0E0"/>
<line x1="1750.5" y1="2.18557e-08" x2="1750.5" y2="582" stroke="#E3E0E0"/>
<line x1="1800.5" y1="2.18557e-08" x2="1800.5" y2="582" stroke="#E3E0E0"/>
<line x1="1850.5" y1="2.18557e-08" x2="1850.5" y2="582" stroke="#E3E0E0"/>
<path d="M0 436C0 436 585.097 436 960 436C1334.9 436 1920 436 1920 436V644H0V436Z" fill="url(#paint0_linear_11_2272)"/>
<defs>
<linearGradient id="paint0_linear_11_2272" x1="960" y1="343.556" x2="960" y2="574.309" gradientUnits="userSpaceOnUse">
<stop stop-color="#FEFCF8" stop-opacity="0.13"/>
<stop offset="1" stop-color="#FEFCF8"/>
</linearGradient>
</defs>
</svg>
